<svg xmlns="http://www.w3.org/2000/svg" xmlns:xlink="http://www.w3.org/1999/xlink" version="1.1" width="1000" height="1000" viewBox="0 0 1000 1000" padding="20px"><g id="container-astrology"><g id="container-astrology-aspects"><line x1="314.2979276391501" y1="603.3004855791378" x2="603.4561043530902" y2="685.6154208897593" stroke="#ed6a64" stroke-width="1" data-name="square" data-degree="90" data-point="Venus" data-toPoint="Jupiter" data-precision="0.0480"></line><line x1="289.24811465933817" y1="472.7990289629851" x2="370.45941663530346" y2="668.450251592374" stroke="#3ba2bf" stroke-width="1" data-name="sextile" data-degree="60" data-point="Moon" data-toPoint="Pluto" data-precision="0.2065"></line><line x1="368.2808182588127" y1="666.7522328529128" x2="369.32550916235357" y2="667.5721559338599" stroke="transparent" stroke-width="1" data-name="conjunction" data-degree="0" data-point="Mercury" data-toPoint="Uranus" data-precision="0.3581"></line><line x1="369.32550916235357" y1="667.5721559338599" x2="370.45941663530346" y2="668.450251592374" stroke="transparent" stroke-width="1" data-name="conjunction" data-degree="0" data-point="Moon" data-toPoint="Mercury" data-precision="0.3867"></line><line x1="289.24811465933817" y1="472.7990289629851" x2="369.32550916235357" y2="667.5721559338599" stroke="#3ba2bf" stroke-width="1" data-name="sextile" data-degree="60" data-point="Mercury" data-toPoint="Pluto" data-precision="0.5932"></line><line x1="368.2808182588127" y1="666.7522328529128" x2="370.45941663530346" y2="668.450251592374" stroke="transparent" stroke-width="1" data-name="conjunction" data-degree="0" data-point="Moon" data-toPoint="Uranus" data-precision="0.7448"></line><line x1="289.24811465933817" y1="472.7990289629851" x2="368.2808182588127" y2="666.7522328529128" stroke="#3ba2bf" stroke-width="1" data-name="sextile" data-degree="60" data-point="Uranus" data-toPoint="Pluto" data-precision="0.9512"></line><line x1="289.24811465933817" y1="472.7990289629851" x2="466.61933234308066" y2="709.8618141224799" stroke="#ed6a64" stroke-width="1" data-name="square" data-degree="90" data-point="Mars" data-toPoint="Pluto" data-precision="1.6835"></line><line x1="673.2121428670157" y1="376.8992137985441" x2="382.39438502185504" y2="323.0108214448908" stroke="#ed6a64" stroke-width="1" data-name="square" data-degree="90" data-point="Chiron" data-toPoint="Lilith" data-precision="1.7980"></line><line x1="352.4905346937845" y1="652.9614580378809" x2="549.6157748193981" y2="706.6265348135877" stroke="#3ba2bf" stroke-width="1" data-name="sextile" data-degree="60" data-point="Saturn" data-toPoint="Neptune" data-precision="2.5371"></line><line x1="369.21608564797805" y1="332.5132311292531" x2="673.2121428670157" y2="376.8992137985441" stroke="#ed6a64" stroke-width="1" data-name="square" data-degree="90" data-point="Lilith" data-toPoint="North Node" data-precision="2.5837"></line><line x1="466.61933234308066" y1="709.8618141224799" x2="453.6919562007197" y2="707.3929002629645" stroke="transparent" stroke-width="1" data-name="conjunction" data-degree="0" data-point="Sun" data-toPoint="Mars" data-precision="3.5491"></line></g><g id="container-astrology-radix"><g id="container-astrology-bg"><path d="M 287.5, 500 l -159.375, 1.9517808361410943e-14 A 371.875, 371.875,0 ,1, 0, 128.12500566398012, 499.9350955687711 l 159.37499757257996, 0.027816184812385063 A 212.5, 212.5,0 ,1, 1, 287.5, 500" fill="#fff"></path></g><g id="container-astrology-radix-signs"><path d="M 624.8797622441012, 850.2799746015418 l 17.839966034871605, 50.039996371648826 A 425, 425,0 ,0, 0, 823.758895797398, 775.3274003655458 l -40.469861974674764, -34.41592504569322 A 371.875, 371.875,0 ,0, 1, 624.8797622441012, 850.2799746015418" fill="#fff" fill-opacity="1" id="container-astrology-radix-signs-0" stroke="#fff" stroke-width="1"></path><path d="M 783.2890338227234, 740.9114753198526 l 40.469861974674764, 34.41592504569322 A 425, 425,0 ,0, 0, 918.0471286445186, 576.5610751757924 l -52.25589108056482, -9.570134396974062 A 371.875, 371.875,0 ,0, 1, 783.2890338227234, 740.9114753198526" fill="#fff" fill-opacity="1" id="container-astrology-radix-signs-1" stroke="#fff" stroke-width="1"></path><path d="M 865.7912375639537, 566.9909407788184 l 52.25589108056482, 9.570134396974062 A 425, 425,0 ,0, 0, 900.3199709731906, 357.28027172102725 l -50.039996371648826, 17.839966034871598 A 371.875, 371.875,0 ,0, 1, 865.7912375639537, 566.9909407788184" fill="#fff" fill-opacity="1" id="container-astrology-radix-signs-2" stroke="#fff" stroke-width="1"></path><path d="M 850.2799746015418, 375.1202377558988 l 50.039996371648826, -17.839966034871598 A 425, 425,0 ,0, 0, 775.3274003655458, 176.24110420260195 l -34.41592504569322, 40.46986197467476 A 371.875, 371.875,0 ,0, 1, 850.2799746015418, 375.1202377558988" fill="#fff" fill-opacity="1" id="container-astrology-radix-signs-3" stroke="#fff" stroke-width="1"></path><path d="M 740.9114753198526, 216.7109661772767 l 34.41592504569322, -40.46986197467476 A 425, 425,0 ,0, 0, 576.5610751757927, 81.95287135548148 l -9.57013439697409, 52.255891080564815 A 371.875, 371.875,0 ,0, 1, 740.9114753198526, 216.7109661772767" fill="#fff" fill-opacity="1" id="container-astrology-radix-signs-4" stroke="#fff" stroke-width="1"></path><path d="M 566.9909407788186, 134.2087624360463 l 9.57013439697409, -52.255891080564815 A 425, 425,0 ,0, 0, 357.28027172102736, 99.68002902680934 l 17.839966034871576, 50.03999637164883 A 371.875, 371.875,0 ,0, 1, 566.9909407788186, 134.2087624360463" fill="#fff" fill-opacity="1" id="container-astrology-radix-signs-5" stroke="#fff" stroke-width="1"></path><path d="M 375.120237755899, 149.72002539845818 l -17.839966034871576, -50.03999637164883 A 425, 425,0 ,0, 0, 176.24110420260206, 224.67259963445406 l 40.46986197467474, 34.41592504569324 A 371.875, 371.875,0 ,0, 1, 375.120237755899, 149.72002539845818" fill="#fff" fill-opacity="1" id="container-astrology-radix-signs-6" stroke="#fff" stroke-width="1"></path><path d="M 216.71096617727682, 259.0885246801473 l -40.46986197467474, -34.41592504569324 A 425, 425,0 ,0, 0, 81.95287135548148, 423.43892482420733 l 52.255891080564815, 9.570134396974082 A 371.875, 371.875,0 ,0, 1, 216.71096617727682, 259.0885246801473" fill="#fff" fill-opacity="1" id="container-astrology-radix-signs-7" stroke="#fff" stroke-width="1"></path><path d="M 134.2087624360463, 433.0090592211814 l -52.255891080564815, -9.570134396974082 A 425, 425,0 ,0, 0, 99.68002902680928, 642.7197282789724 l 50.03999637164884, -17.83996603487155 A 371.875, 371.875,0 ,0, 1, 134.2087624360463, 433.0090592211814" fill="#fff" fill-opacity="1" id="container-astrology-radix-signs-8" stroke="#fff" stroke-width="1"></path><path d="M 149.72002539845812, 624.8797622441009 l -50.03999637164884, 17.83996603487155 A 425, 425,0 ,0, 0, 224.6725996344539, 823.7588957973978 l 34.415925045693264, -40.46986197467472 A 371.875, 371.875,0 ,0, 1, 149.72002539845812, 624.8797622441009" fill="#fff" fill-opacity="1" id="container-astrology-radix-signs-9" stroke="#fff" stroke-width="1"></path><path d="M 259.08852468014715, 783.289033822723 l -34.415925045693264, 40.46986197467472 A 425, 425,0 ,0, 0, 423.4389248242071, 918.0471286445185 l 9.570134396974108, -52.25589108056481 A 371.875, 371.875,0 ,0, 1, 259.08852468014715, 783.289033822723" fill="#fff" fill-opacity="1" id="container-astrology-radix-signs-10" stroke="#fff" stroke-width="1"></path><path d="M 433.00905922118125, 865.7912375639537 l -9.570134396974108, 52.25589108056481 A 425, 425,0 ,0, 0, 642.7197282789725, 900.3199709731907 l -17.839966034871573, -50.03999637164884 A 371.875, 371.875,0 ,0, 1, 433.00905922118125, 865.7912375639537" fill="#fff" fill-opacity="1" id="container-astrology-radix-signs-11" stroke="#fff" stroke-width="1"></path><g id="container-astrology-radix-signs-Aries" transform="translate(0,0) scale(1)"><path d="m 717, 826 -0.9,-0.9 0,-1.8 0.9,-1.8 1.8,-0.8999998 1.8,0 1.8,0.8999998 0.9,0.9 0.9,1.8 0.9,4.5 m -9,-5.4 1.8,-1.8 1.8,0 1.8,0.9 0.9,0.9 0.9,1.8 0.9,3.6 0,9.9 m 8.1,-12.6 0.9,-0.9 0,-1.8 -0.9,-1.8 -1.8,-0.8999998 -1.8,0 -1.8,0.8999998 -0.9,0.9 -0.9,1.8 -0.9,4.5 m 9,-5.4 -1.8,-1.8 -1.8,0 -1.8,0.9 -0.9,0.9 -0.9,1.8 -0.9,3.6 0,9.9" stroke="#ed6a64" stroke-width="1.5" fill="none"></path></g><g id="container-astrology-radix-signs-Taurus" transform="translate(0,0) scale(1)"><path d="m 851, 660 1,4 1,2 2,2 3,1 4,0 3,-1 2,-2 1,-2 1,-4 m -18,0 1,3 1,2 2,2 3,1 4,0 3,-1 2,-2 1,-2 1,-3 m -11,8 -2,1 -1,1 -1,2 0,3 1,2 2,2 2,1 2,0 2,-1 2,-2 1,-2 0,-3 -1,-2 -1,-1 -2,-1 m -4,1 -2,1 -1,2 0,3 1,3 m 8,0 1,-3 0,-3 -1,-2 -2,-1" stroke="#4e241b" stroke-width="1.5" fill="none"></path></g><g id="container-astrology-radix-signs-Gemini" transform="translate(0,0) scale(1)"><path d="m 891, 462 0,11.546414 m 0.9622011,-10.5842129 0,9.6220117 m 7.6976097,-9.6220117 0,9.6220117 m 0.962201,-10.5842128 0,11.546414 m -13.4708165,-14.4330172 1.9244023,1.924402 1.9244024,0.9622012 2.8866038,0.9622011 3.848804,0 2.886604,-0.9622011 1.924402,-0.9622012 1.924403,-1.924402 m -17.3196215,17.3196207 1.9244023,-1.9244024 1.9244024,-0.9622011 2.8866038,-0.9622012 3.848804,0 2.886604,0.9622012 1.924402,0.9622011 1.924403,1.9244024" stroke="#3ba2bf" stroke-width="1.5" fill="none"></path></g><g id="container-astrology-radix-signs-Cancer" transform="translate(0,0) scale(1)"><path d="m 837, 265 -15,0 -2,1 -1,2 0,2 1,2 2,1 2,0 2,-1 1,-2 0,-2 -1,-2 11,0 m -18,3 1,2 1,1 2,1 m 4,-4 -1,-2 -1,-1 -2,-1 m -4,15 15,0 2,-1 1,-2 0,-2 -1,-2 -2,-1 -2,0 -2,1 -1,2 0,2 1,2 -11,0 m 18,-3 -1,-2 -1,-1 -2,-1 m -4,4 1,2 1,1 2,1" stroke="#5a9a9b" stroke-width="1.5" fill="none"></path></g><g id="container-astrology-radix-signs-Leo" transform="translate(0,0) scale(1)"><path d="m 668, 144 -2,-1 -1,0 -2,1 -1,2 0,1 1,2 2,1 1,0 2,-1 1,-2 0,-1 -1,-2 -5,-5 -1,-2 0,-3 1,-2 2,-1 3,-1 4,0 4,1 2,2 1,2 0,3 -1,3 -3,3 -1,2 0,2 1,2 2,0 1,-1 1,-2 m -13,-5 -2,-3 -1,-2 0,-3 1,-2 1,-1 m 7,-1 3,1 2,2 1,2 0,3 -1,3 -2,3" stroke="#ed6a64" stroke-width="1.5" fill="none"></path></g><g id="container-astrology-radix-signs-Virgo" transform="translate(0,0) scale(1)"><path d="m 459, 98 2.5894868,-2.5894868 1.7263245,2.5894868 0,9.4947847 m -2.5894868,-11.2211092 1.7263245,2.5894867 0,8.6316225 m 0.8631623,-9.4947847 2.5894867,-2.5894868 1.72632451,2.5894868 0,8.6316224 m -2.58948671,-10.3579469 1.72632447,2.5894867 0,7.7684602 m 0.86316224,-8.6316224 2.58948679,-2.5894868 1.7263244,2.5894868 0,13.8105959 m -2.5894867,-15.5369204 1.7263245,2.5894867 0,12.9474337 m 0.8631622,-13.8105959 2.5894868,-2.5894868 0.8631622,1.7263245 0.8631623,2.5894868 0,2.5894867 -0.8631623,2.58948673 -0.8631622,1.72632447 -1.7263245,1.7263245 -2.5894867,1.7263245 -4.3158113,1.7263245 m 7.7684602,-15.5369204 0.8631623,0.8631622 0.8631622,2.5894868 0,2.5894867 -0.8631622,2.58948673 -0.8631623,1.72632447 -1.7263245,1.7263245 -2.5894867,1.7263245 -3.452649,1.7263245" stroke="#4e241b" stroke-width="1.5" fill="none"></path></g><g id="container-astrology-radix-signs-Libra" transform="translate(0,0) scale(1)"><path d="m 272, 164 c 0.7519,1e-5 1.3924,0.12227 1.9316,0.35156 0.6619,0.28495 1.2134,0.63854 1.666,1.0625 0.4838,0.45481 0.853,0.97255 1.1172,1.56641 0.2467,0.56612 0.3711,1.17397 0.3711,1.83789 0,0.64113 -0.1244,1.23948 -0.373,1.80859 -0.1624,0.36305 -0.3631,0.69725 -0.6055,1.00586 l -0.6367,0.8086 4.3789,0 0,0.67187 -5.4024,0 0,-0.91797 c 0.2173,-0.1385 0.4379,-0.27244 0.6367,-0.44726 0.4215,-0.36876 0.7529,-0.82784 0.9883,-1.35547 0.2215,-0.50074 0.334,-1.0358 0.334,-1.58594 0,-0.55653 -0.1122,-1.09434 -0.334,-1.5957 l -0,-0.002 0,-0.004 c -0.2292,-0.49901 -0.5581,-0.94778 -0.9746,-1.33789 l -0,-0.002 -0,-0.002 c -0.3967,-0.36155 -0.8679,-0.65723 -1.4062,-0.88476 l -0,0 c -0.4984,-0.20903 -1.0622,-0.30663 -1.6817,-0.30664 -0.5926,1e-5 -1.1526,0.10008 -1.6699,0.30273 l -0,0 c -0.5261,0.20799 -1.0032,0.5067 -1.4199,0.88867 l -0,0.002 -0,0.002 c -0.4166,0.39011 -0.7454,0.83887 -0.9746,1.33789 l 0,0.004 -0,0.002 c -0.2218,0.50136 -0.334,1.03915 -0.334,1.5957 0,0.55015 0.1125,1.08519 0.334,1.58594 l 0,0.002 0,0.004 c 0.229,0.49855 0.5574,0.94911 0.9746,1.33984 0.1876,0.17482 0.4143,0.31484 0.6367,0.45703 l 0,0.91797 -5.3906,0 0,-0.67187 4.3789,0 -0.6367,-0.8086 c -0.2428,-0.30904 -0.443,-0.64418 -0.6055,-1.00781 -0.2487,-0.56911 -0.3731,-1.16552 -0.3731,-1.80664 0,-0.66391 0.1244,-1.27178 0.3711,-1.83789 l 0,-0.002 c 3e-4,-5.8e-4 -2e-4,-10e-4 0,-0.002 0.2641,-0.59218 0.6326,-1.10871 1.1153,-1.5625 0.4847,-0.45571 1.0332,-0.80585 1.6562,-1.05859 0.5861,-0.23488 1.2294,-0.35546 1.9414,-0.35547 z m -7.8496,13.45899 15.6992,0 0,0.67187 -15.6992,0 z" stroke="#3ba2bf" stroke-width="1.5" fill="none"></path></g><g id="container-astrology-radix-signs-Scorpio" transform="translate(0,0) scale(1)"><path d="m 131, 325 2.3781101,-2.3781101 2.3781101,2.3781101 0,9.5124404 m -3.1708135,-11.0978471 2.3781101,2.3781101 0,8.719737 m 0.7927034,-9.5124404 2.3781101,-2.3781101 2.37811007,2.3781101 0,9.5124404 m -3.17081347,-11.0978471 2.3781101,2.3781101 0,8.719737 m 0.79270337,-9.5124404 2.37811013,-2.3781101 2.3781101,2.3781101 0,8.719737 1.5854067,1.5854068 m -4.7562202,-11.8905505 2.3781101,2.3781101 0,8.719737 1.5854067,1.5854067 2.3781101,-2.3781101" stroke="#5a9a9b" stroke-width="1.5" fill="none"></path></g><g id="container-astrology-radix-signs-Sagittarius" transform="translate(0,0) scale(1)"><path d="m 110, 523 -17.11444,17.11444 m 17.11444,-17.11444 -3.2089575,1.0696525 -6.417915,0 m 7.4875675,1.0696525 -3.2089575,0 -4.27861,-1.0696525 m 9.6268725,-1.0696525 -1.0696525,3.2089575 0,6.41791504 m -1.0696525,-7.48756754 0,3.2089575 1.0696525,4.27861004 m -8.55722,0 -7.4875675,0 m 6.417915,1.06965246 -3.2089575,0 -3.2089575,-1.06965246 m 7.4875675,0 0,7.48756746 m -1.0696525,-6.417915 0,3.2089575 1.0696525,3.2089575" stroke="#ed6a64" stroke-width="1.5" fill="none"></path></g><g id="container-astrology-radix-signs-Capricorn" transform="translate(0,0) scale(1)"><path d="m 163, 723 1.8047633,-3.6095267 4.5119084,9.0238168 m -4.5119084,-7.2190534 4.5119084,9.0238167 2.707145,-6.3166717 4.5119084,0 2.707145,-0.9023817 0.9023817,-1.8047633 0,-1.8047634 -0.9023817,-1.8047633 -1.8047634,-0.9023817 -0.9023816,0 -1.8047634,0.9023817 -0.9023817,1.8047633 0,1.8047634 0.9023817,2.707145 0.9023817,1.80476336 0.9023817,2.70714504 0,2.707145 -1.8047634,1.8047633 m 1.8047634,-16.2428701 -0.9023817,0.9023817 -0.9023817,1.8047633 0,1.8047634 1.8047634,3.6095267 0.9023816,2.707145 0,2.707145 -0.9023816,1.8047634 -1.8047634,0.9023816" stroke="#4e241b" stroke-width="1.5" fill="none"></path></g><g id="container-astrology-radix-signs-Aquarius" transform="translate(0,0) scale(1)"><path d="m 321, 858 2.8866035,-2.8866035 3.8488047,1.9244023 m -4.8110059,-0.9622011 3.8488047,1.9244023 2.8866035,-2.8866035 2.8866035,1.9244023 m -3.84880467,-0.9622011 2.88660347,1.9244023 2.8866035,-2.8866035 1.9244024,1.9244023 m -2.8866035,-0.9622011 1.9244023,1.9244023 2.8866035,-2.8866035 m -17.319621,8.6598105 2.8866035,-2.88660348 3.8488047,1.92440238 m -4.8110059,-0.96220121 3.8488047,1.92440231 2.8866035,-2.88660348 2.8866035,1.92440238 m -3.84880467,-0.96220121 2.88660347,1.92440231 2.8866035,-2.88660348 1.9244024,1.92440238 m -2.8866035,-0.96220121 1.9244023,1.92440231 2.8866035,-2.88660348" stroke="#3ba2bf" stroke-width="1.5" fill="none"></path></g><g id="container-astrology-radix-signs-Pisces" transform="translate(0,0) scale(1)"><path d="m 524, 889 4,2 2,2 1,3 0,3 -1,3 -2,2 -4,2 m 0,-17 3,1 2,1 2,2 1,3 m 0,3 -1,3 -2,2 -2,1 -3,1 m 16,-17 -3,1 -2,1 -2,2 -1,3 m 0,3 1,3 2,2 2,1 3,1 m 0,-17 -4,2 -2,2 -1,3 0,3 1,3 2,2 4,2 m -17,-9 18,0 m -18,1 18,0" stroke="#5a9a9b" stroke-width="1.5" fill="none"></path></g></g><g id="container-astrology-radix-ruler"><line x1="620.4197707353833" y1="837.7699755086296" x2="624.8797622441012" y2="850.2799746015418" stroke="#333" stroke-width="1"></line><line x1="649.4001302453254" y1="825.9893842163304" x2="652.1667993239425" y2="832.026224664781" stroke="#333" stroke-width="1"></line><line x1="677.2434645538352" y1="811.7278168723732" x2="683.8080373150884" y2="823.27329157135" stroke="#333" stroke-width="1"></line><line x1="703.7378690745606" y1="795.093812615615" x2="707.5107925759414" y2="800.5585128492376" stroke="#333" stroke-width="1"></line><line x1="728.6817053913396" y1="776.2139662623363" x2="737.1513981836115" y2="786.4441131609412" stroke="#333" stroke-width="1"></line><line x1="751.8851358483016" y1="755.2319648432483" x2="756.549675401048" y2="759.9584827107158" stroke="#333" stroke-width="1"></line><line x1="773.1715683290547" y1="732.3074940584293" x2="783.2890338227234" y2="740.9114753198526" stroke="#333" stroke-width="1"></line><line x1="792.3790002293208" y1="707.6150229727255" x2="797.7934261594935" y2="711.4597456203685" stroke="#333" stroke-width="1"></line><line x1="809.3612513945747" y1="681.3424762008209" x2="820.8190755202996" y2="688.0588642082587" stroke="#333" stroke-width="1"></line><line x1="823.989076639285" y1="653.6898036874471" x2="829.9888743548272" y2="656.5359111631406" stroke="#333" stroke-width="1"></line><line x1="836.1511493808171" y1="624.8674589675712" x2="848.601191950477" y2="629.4921796700738" stroke="#333" stroke-width="1"></line><line x1="845.7549089019478" y1="595.0947974879189" x2="852.1577775853171" y2="596.8558122562138" stroke="#333" stroke-width="1"></line><line x1="852.7272647938125" y1="564.5984071795749" x2="865.7912375639537" y2="566.9909407788184" stroke="#333" stroke-width="1"></line><line x1="857.0151532180507" y1="533.6103839870096" x2="863.626544944311" y2="534.2327985052876" stroke="#333" stroke-width="1"></line><line x1="858.5859407546561" y1="502.36656547779853" x2="871.8669015233472" y2="502.4542160510503" stroke="#333" stroke-width="1"></line><line x1="857.4276727620078" y1="471.10473597633006" x2="864.046703739082" y2="470.56963849441024" stroke="#333" stroke-width="1"></line><line x1="853.549164358911" y1="440.06281688151915" x2="866.6435778536854" y2="437.8429212104643" stroke="#333" stroke-width="1"></line><line x1="846.9799333362205" y1="409.47705594130053" x2="853.4054876572617" y2="407.80070512539874" stroke="#333" stroke-width="1"></line><line x1="837.7699755086296" y1="379.5802292646167" x2="850.2799746015418" y2="375.1202377558988" stroke="#333" stroke-width="1"></line><line x1="825.9893842163306" y1="350.59986975467467" x2="832.026224664781" y2="347.8332006760576" stroke="#333" stroke-width="1"></line><line x1="811.7278168723732" y1="322.7565354461647" x2="823.27329157135" y2="316.1919626849116" stroke="#333" stroke-width="1"></line><line x1="795.093812615615" y1="296.26213092543935" x2="800.5585128492376" y2="292.48920742405863" stroke="#333" stroke-width="1"></line><line x1="776.2139662623363" y1="271.3182946086603" x2="786.4441131609412" y2="262.8486018163885" stroke="#333" stroke-width="1"></line><line x1="755.2319648432483" y1="248.11486415169836" x2="759.9584827107158" y2="243.45032459895202" stroke="#333" stroke-width="1"></line><line x1="732.3074940584293" y1="226.82843167094535" x2="740.9114753198526" y2="216.7109661772767" stroke="#333" stroke-width="1"></line><line x1="707.6150229727255" y1="207.6209997706792" x2="711.4597456203685" y2="202.20657384050656" stroke="#333" stroke-width="1"></line><line x1="681.3424762008209" y1="190.63874860542535" x2="688.0588642082587" y2="179.18092447970037" stroke="#333" stroke-width="1"></line><line x1="653.6898036874471" y1="176.01092336071503" x2="656.5359111631406" y2="170.01112564517274" stroke="#333" stroke-width="1"></line><line x1="624.8674589675712" y1="163.84885061918288" x2="629.4921796700739" y2="151.39880804952304" stroke="#333" stroke-width="1"></line><line x1="595.0947974879189" y1="154.24509109805223" x2="596.8558122562138" y2="147.84222241468285" stroke="#333" stroke-width="1"></line><line x1="564.5984071795751" y1="147.27273520618752" x2="566.9909407788186" y2="134.2087624360463" stroke="#333" stroke-width="1"></line><line x1="533.6103839870099" y1="142.98484678194927" x2="534.2327985052879" y2="136.37345505568902" stroke="#333" stroke-width="1"></line><line x1="502.3665654777988" y1="141.41405924534382" x2="502.4542160510506" y2="128.13309847665283" stroke="#333" stroke-width="1"></line><line x1="471.1047359763303" y1="142.57232723799223" x2="470.56963849441047" y2="135.95329626091797" stroke="#333" stroke-width="1"></line><line x1="440.0628168815194" y1="146.45083564108904" x2="437.84292121046457" y2="133.35642214631457" stroke="#333" stroke-width="1"></line><line x1="409.47705594130076" y1="153.02006666377935" x2="407.8007051253989" y2="146.59451234273826" stroke="#333" stroke-width="1"></line><line x1="379.58022926461683" y1="162.2300244913704" x2="375.120237755899" y2="149.72002539845818" stroke="#333" stroke-width="1"></line><line x1="350.59986975467484" y1="174.01061578366944" x2="347.83320067605774" y2="167.97377533521887" stroke="#333" stroke-width="1"></line><line x1="322.7565354461649" y1="188.2721831276267" x2="316.1919626849118" y2="176.72670842864989" stroke="#333" stroke-width="1"></line><line x1="296.26213092543946" y1="204.90618738438496" x2="292.4892074240587" y2="199.44148715076244" stroke="#333" stroke-width="1"></line><line x1="271.31829460866044" y1="223.78603373766367" x2="262.8486018163886" y2="213.55588683905864" stroke="#333" stroke-width="1"></line><line x1="248.11486415169853" y1="244.76803515675158" x2="243.4503245989522" y2="240.041517289284" stroke="#333" stroke-width="1"></line><line x1="226.82843167094552" y1="267.69250594157063" x2="216.71096617727682" y2="259.0885246801473" stroke="#333" stroke-width="1"></line><line x1="207.62099977067925" y1="292.38497702727443" x2="202.20657384050668" y2="288.5402543796314" stroke="#333" stroke-width="1"></line><line x1="190.63874860542552" y1="318.6575237991789" x2="179.18092447970054" y2="311.94113579174103" stroke="#333" stroke-width="1"></line><line x1="176.0109233607152" y1="346.31019631255253" x2="170.0111256451729" y2="343.4640888368591" stroke="#333" stroke-width="1"></line><line x1="163.848850619183" y1="375.13254103242855" x2="151.3988080495231" y2="370.50782032992595" stroke="#333" stroke-width="1"></line><line x1="154.24509109805234" y1="404.90520251208085" x2="147.8422224146829" y2="403.144187743786" stroke="#333" stroke-width="1"></line><line x1="147.27273520618752" y1="435.4015928204249" x2="134.2087624360463" y2="433.0090592211814" stroke="#333" stroke-width="1"></line><line x1="142.98484678194927" y1="466.3896160129902" x2="136.37345505568902" y2="465.7672014947122" stroke="#333" stroke-width="1"></line><line x1="141.41405924534382" y1="497.6334345222014" x2="128.13309847665283" y2="497.54578394894963" stroke="#333" stroke-width="1"></line><line x1="142.57232723799223" y1="528.8952640236697" x2="135.95329626091797" y2="529.4303615055895" stroke="#333" stroke-width="1"></line><line x1="146.45083564108904" y1="559.9371831184806" x2="133.35642214631457" y2="562.1570787895355" stroke="#333" stroke-width="1"></line><line x1="153.0200666637794" y1="590.5229440586993" x2="146.5945123427383" y2="592.1992948746012" stroke="#333" stroke-width="1"></line><line x1="162.23002449137033" y1="620.4197707353829" x2="149.72002539845812" y2="624.8797622441009" stroke="#333" stroke-width="1"></line><line x1="174.01061578366944" y1="649.400130245325" x2="167.97377533521887" y2="652.1667993239422" stroke="#333" stroke-width="1"></line><line x1="188.2721831276267" y1="677.2434645538351" x2="176.72670842864989" y2="683.8080373150882" stroke="#333" stroke-width="1"></line><line x1="204.90618738438496" y1="703.7378690745604" x2="199.44148715076244" y2="707.5107925759412" stroke="#333" stroke-width="1"></line><line x1="223.78603373766356" y1="728.6817053913394" x2="213.55588683905847" y2="737.1513981836113" stroke="#333" stroke-width="1"></line><line x1="244.76803515675158" y1="751.8851358483015" x2="240.041517289284" y2="756.5496754010478" stroke="#333" stroke-width="1"></line><line x1="267.69250594157046" y1="773.1715683290544" x2="259.08852468014715" y2="783.289033822723" stroke="#333" stroke-width="1"></line><line x1="292.38497702727443" y1="792.3790002293208" x2="288.5402543796314" y2="797.7934261594933" stroke="#333" stroke-width="1"></line><line x1="318.657523799179" y1="809.3612513945745" x2="311.94113579174115" y2="820.8190755202995" stroke="#333" stroke-width="1"></line><line x1="346.31019631255265" y1="823.9890766392848" x2="343.4640888368592" y2="829.9888743548272" stroke="#333" stroke-width="1"></line><line x1="375.13254103242855" y1="836.1511493808171" x2="370.5078203299259" y2="848.601191950477" stroke="#333" stroke-width="1"></line><line x1="404.9052025120808" y1="845.7549089019476" x2="403.144187743786" y2="852.157777585317" stroke="#333" stroke-width="1"></line><line x1="435.40159282042475" y1="852.7272647938125" x2="433.00905922118125" y2="865.7912375639537" stroke="#333" stroke-width="1"></line><line x1="466.3896160129903" y1="857.0151532180507" x2="465.76720149471237" y2="863.626544944311" stroke="#333" stroke-width="1"></line><line x1="497.63343452220107" y1="858.5859407546561" x2="497.5457839489493" y2="871.8669015233472" stroke="#333" stroke-width="1"></line><line x1="528.8952640236695" y1="857.4276727620078" x2="529.4303615055893" y2="864.046703739082" stroke="#333" stroke-width="1"></line><line x1="559.9371831184807" y1="853.549164358911" x2="562.1570787895356" y2="866.6435778536854" stroke="#333" stroke-width="1"></line><line x1="590.522944058699" y1="846.9799333362207" x2="592.1992948746008" y2="853.4054876572618" stroke="#333" stroke-width="1"></line><circle cx="500" cy="500" r="358.59375" fill="none" stroke="#333" stroke-width="1"></circle></g><g id="container-astrology-radix-planets"><line x1="251.07777729576145" y1="758.1224604389241" x2="255.68744808658067" y2="753.3424148752404" stroke="#333" stroke-width="1"></line><line x1="255.68744808658067" y1="753.3424148752404" x2="257.51932286861086" y2="734.4842081551614" stroke="#333" stroke-width="0.5"></line><g transform="translate(0,0) scale(1)" id="container-astrology-radix-planets-Neptune"><path d="m268, 723 1.77059,-2.36312 2.31872,1.8045 m -14.44264,-0.20006 2.34113,-1.77418 1.74085,2.38595 m -1.80013,-1.77265 c -1.23776,8.40975 0.82518,9.67121 4.95106,9.67121 4.12589,0 6.18883,-1.26146 4.95107,-9.67121 m -7.05334,3.17005 2.03997,-2.12559 2.08565,2.07903 m -5.32406,9.91162 6.60142,0 m -3.30071,-12.19414 0,15.55803" stroke="#000" stroke-width="1.8" fill="none"></path></g><text x="271.850786337394" y="717.5326659456327" font-size="8" fill="#000" font-family="serif" dominant-baseline="central" transform="translate(0,0) scale(1)">26°25'</text><text x="271.850786337394" y="724.6755230884899" font-size="8" fill="#000" font-family="serif" dominant-baseline="central" transform="translate(0,0) scale(1)"></text><line x1="277.7238808117464" y1="781.3943929392905" x2="281.84010524115854" y2="776.183385662637" stroke="#333" stroke-width="1"></line><line x1="281.84010524115854" y1="776.183385662637" x2="272.9603243801341" y2="749.4648439172864" stroke="#333" stroke-width="0.5"></line><g transform="translate(0,0) scale(1)" id="container-astrology-radix-planets-Uranus"><path d="m275, 735  0,10.23824 m 10.23633,-10.32764 0,10.23824 m -10.26606,-4.6394 10.23085,0 m -5.06415,-5.51532 0,11.94985" stroke="#000" stroke-width="1.8" fill="none"></path><path d="m282, 749.5 a 1.8384377,1.8384377 0 0 1 -1.83844,1.83843 1.8384377,1.8384377 0 0 1 -1.83842,-1.83843 1.8384377,1.8384377 0 0 1 1.83842,-1.83844 1.8384377,1.8384377 0 0 1 1.83844,1.83844 z" stroke="#000" stroke-width="1.8" fill="none"></path></g><text x="286.8340223788702" y="732.069184286609" font-size="8" fill="#000" font-family="serif" dominant-baseline="central" transform="translate(0,0) scale(1)">02°04'</text><text x="286.8340223788702" y="739.2120414294661" font-size="8" fill="#000" font-family="serif" dominant-baseline="central" transform="translate(0,0) scale(1)"></text><line x1="279.4867967114716" y1="782.7780131383886" x2="283.5703745501481" y2="777.5413832654555" stroke="#333" stroke-width="1"></line><line x1="283.5703745501481" y1="777.5413832654555" x2="297.2473276989588" y2="769.5757343141934" stroke="#333" stroke-width="0.5"></line><g transform="translate(0,0) scale(1)" id="container-astrology-radix-planets-Mercury"><path d="m301, 769 4.26011,0 m -2.13005,-2.98207 0,5.11213 m 4.70312,-9.7983 a 4.70315,4.70315 0 0 1 -4.70315,4.70314 4.70315,4.70315 0 0 1 -4.70314,-4.70314 4.70315,4.70315 0 0 1 4.70314,-4.70315 4.70315,4.70315 0 0 1 4.70315,4.70315 z" stroke="#000" stroke-width="1.8" fill="none"></path><path d="m307, 753 a 3.9717855,3.9717855 0 0 1 -3.95541,3.59054 3.9717855,3.9717855 0 0 1 -3.95185,-3.59445" stroke="#000" stroke-width="1.8" fill="none"></path></g><text x="310.40101077625485" y="751.583865222055" font-size="8" fill="#000" font-family="serif" dominant-baseline="central" transform="translate(0,0) scale(1)">02°25'</text><text x="310.40101077625485" y="758.7267223649121" font-size="8" fill="#000" font-family="serif" dominant-baseline="central" transform="translate(0,0) scale(1)"></text><line x1="281.4002655720746" y1="784.2597995621311" x2="285.44840880222137" y2="778.9957291998694" stroke="#333" stroke-width="1"></line><line x1="285.44840880222137" y1="778.9957291998694" x2="318.46041964103136" y2="784.294043939263" stroke="#333" stroke-width="0.5"></line><g transform="translate(0,0) scale(1)" id="container-astrology-radix-planets-Moon"><path d="m322, 769 a 7.4969283,7.4969283 0 0 1 0,14.327462 7.4969283,7.4969283 0 1 0 0,-14.327462 z" stroke="#000" stroke-width="1.8" fill="none"></path></g><text x="330.9852172799854" y="765.8658343727849" font-size="8" fill="#000" font-family="serif" dominant-baseline="central" transform="translate(0,0) scale(1)">02°49'</text><text x="330.9852172799854" y="773.008691515642" font-size="8" fill="#000" font-family="serif" dominant-baseline="central" transform="translate(0,0) scale(1)"></text><line x1="674.5821760958397" y1="813.2260227514689" x2="671.3491728348056" y2="807.425540848664" stroke="#333" stroke-width="1"></line><g transform="translate(0,0) scale(1)" id="container-astrology-radix-planets-Venus"><path d="m661, 793 -4.937669,0.03973 m 2.448972,2.364607 0,-5.79014 c -3.109546,-0.0085 -5.624617,-2.534212 -5.620187,-5.64208 0.0044,-3.107706 2.526514,-5.621689 5.635582,-5.621689 3.109068,0 5.631152,2.513983 5.635582,5.621689 0.0044,3.107868 -2.510641,5.633586 -5.620187,5.64208" stroke="#000" stroke-width="1.8" fill="none"></path></g><text x="666.4956861126022" y="775.9023409410793" font-size="8" fill="#000" font-family="serif" dominant-baseline="central" transform="translate(0,0) scale(1)">09°30'</text><text x="666.4956861126022" y="783.0451980839364" font-size="8" fill="#000" font-family="serif" dominant-baseline="central" transform="translate(0,0) scale(1)"></text><line x1="792.295491088089" y1="292.26742328504315" x2="786.8826116234947" y2="296.11432285383864" stroke="#333" stroke-width="1"></line><g transform="translate(0,0) scale(1)" id="container-astrology-radix-planets-Lilith"><path d="m769, 314 -2.525435,-1.12853 -1.464752,-1.79539 -0.808138,-2.20576 0.151526,-2.05188 0.909156,-1.5389 1.010173,-1.02593 0.909157,-0.56427 1.363735,-0.61556 m 2.315327,-0.39055 -1.716301,0.54716 -1.7163,1.09431 -1.1442,1.64146 -0.572102,1.64146 0,1.64146 0.572102,1.64147 1.1442,1.64145 1.7163,1.09432 1.716301,0.54715 m 0,-11.49024 -2.2884,0 -2.288401,0.54716 -1.716302,1.09431 -1.144201,1.64146 -0.5721,1.64146 0,1.64146 0.5721,1.64147 1.144201,1.64145 1.716302,1.09432 2.288401,0.54715 2.2884,0 m -4.36712,-0.4752 0,6.44307 m -2.709107,-3.41101 5.616025,0" stroke="#000" stroke-width="1.8" fill="none"></path></g><text x="773.9405019059632" y="300.38858313616925" font-size="8" fill="#000" font-family="serif" dominant-baseline="central" transform="translate(0,0) scale(1)">15°46'</text><text x="773.9405019059632" y="307.5314402790264" font-size="8" fill="#000" font-family="serif" dominant-baseline="central" transform="translate(0,0) scale(1)"></text><line x1="301.54052472438036" y1="201.33076118825323" x2="305.21570019244746" y2="206.86167301810036" stroke="#333" stroke-width="1"></line><g transform="translate(0,0) scale(1)" id="container-astrology-radix-planets-Chiron"><path d="m322, 232 a 3.8764725,3.0675249 0 0 1 -3.876473,3.067525 3.8764725,3.0675249 0 0 1 -3.876472,-3.067525 3.8764725,3.0675249 0 0 1 3.876472,-3.067525 3.8764725,3.0675249 0 0 1 3.876473,3.067525 z" stroke="#000" stroke-width="1.8" fill="none"></path><path d="m322, 219   -3.942997,4.243844 4.110849,3.656151 m -4.867569,-9.009468 0,11.727251" stroke="#000" stroke-width="1.8" fill="none"></path></g><text x="325.9956201897557" y="217.38460938438033" font-size="8" fill="#000" font-family="serif" dominant-baseline="central" transform="translate(0,0) scale(1)">13°58'</text><text x="325.9956201897557" y="224.52746652723746" font-size="8" fill="#000" font-family="serif" dominant-baseline="central" transform="translate(0,0) scale(1)">Rₓ</text><line x1="279.302144530963" y1="217.36607753061463" x2="283.3891418544637" y2="222.60003905782543" stroke="#333" stroke-width="1"></line><g transform="translate(0,0) scale(1)" id="container-astrology-radix-planets-North Node"><path d="m297, 245 -1.3333334,-0.6666667 -0.6666666,0 -1.3333334,0.6666667 -0.6666667,1.3333333 0,0.6666667 0.6666667,1.3333333 1.3333334,0.6666667 0.6666666,0 1.3333334,-0.6666667 0.6666666,-1.3333333 0,-0.6666667 -0.6666666,-1.3333333 -2,-2.66666665 -0.6666667,-1.99999995 0,-1.3333334 0.6666667,-2 1.3333333,-1.3333333 2,-0.6666667 2.6666666,0 2,0.6666667 1.3333333,1.3333333 0.6666667,2 0,1.3333334 -0.6666667,1.99999995 -2,2.66666665 -0.6666666,1.3333333 0,0.6666667 0.6666666,1.3333333 1.3333334,0.6666667 0.6666666,0 1.3333334,-0.6666667 0.6666667,-1.3333333 0,-0.6666667 -0.6666667,-1.3333333 -1.3333334,-0.6666667 -0.6666666,0 -1.3333334,0.6666667 m -7.9999999,-6 0.6666667,-1.3333333 1.3333333,-1.3333333 2,-0.6666667 2.6666666,0 2,0.6666667 1.3333333,1.3333333 0.6666667,1.3333333" stroke="#000" stroke-width="1.8" fill="none"></path></g><text x="305.69716318358104" y="232.02111512467604" font-size="8" fill="#000" font-family="serif" dominant-baseline="central" transform="translate(0,0) scale(1)">18°21'</text><text x="305.69716318358104" y="239.16397226753318" font-size="8" fill="#000" font-family="serif" dominant-baseline="central" transform="translate(0,0) scale(1)">Rₓ</text><line x1="144.3561934876331" y1="454.09836137503737" x2="150.9421899045288" y2="454.9483917199441" stroke="#333" stroke-width="1"></line><g transform="translate(0,0) scale(1)" id="container-astrology-radix-planets-Pluto"><path d="m180, 453 a 5.7676856,5.7676856 0 0 1 -2.88385,4.99496 5.7676856,5.7676856 0 0 1 -5.76768,0 5.7676856,5.7676856 0 0 1 -2.88385,-4.99496 m 5.76771,13.93858 0,-8.17088 m -3.84512,4.32576 7.69024,0" stroke="#000" stroke-width="1.8" fill="none"></path><path d="m177.7, 453 a 3.3644834,3.3644834 0 0 1 -3.36448,3.36449 3.3644834,3.3644834 0 0 1 -3.36448,-3.36449 3.3644834,3.3644834 0 0 1 3.36448,-3.36448 3.3644834,3.3644834 0 0 1 3.36448,3.36448 z" stroke="#000" stroke-width="1.8" fill="none"></path></g><text x="182.52296786960827" y="448.1025043173979" font-size="8" fill="#000" font-family="serif" dominant-baseline="central" transform="translate(0,0) scale(1)">03°01'</text><text x="182.52296786960827" y="455.2453614602551" font-size="8" fill="#000" font-family="serif" dominant-baseline="central" transform="translate(0,0) scale(1)"></text><line x1="186.62775289106577" y1="674.3195694147951" x2="192.4309426523423" y2="671.091429240447" stroke="#333" stroke-width="1"></line><g transform="translate(0,0) scale(1)" id="container-astrology-radix-planets-Jupiter"><path d="m209, 657 c -0.43473,0 -1.30422,-0.40572 -1.30422,-2.02857 0,-1.62285 1.73897,-3.2457 3.47792,-3.2457 1.73897,0 3.47792,1.21715 3.47792,4.05713 0,2.83999 -2.1737,7.30283 -6.52108,7.30283 m 12.17269,0 -12.60745,0 m 9.99902,-11.76567 0,15.82279" stroke="#000" stroke-width="1.8" fill="none"></path></g><text x="221.10704745057157" y="649.1131302876308" font-size="8" fill="#000" font-family="serif" dominant-baseline="central" transform="translate(0,0) scale(1)">09°27'</text><text x="221.10704745057157" y="656.255987430488" font-size="8" fill="#000" font-family="serif" dominant-baseline="central" transform="translate(0,0) scale(1)"></text><line x1="421.85517608871453" y1="849.9755191937526" x2="423.302302457442" y2="843.494491060535" stroke="#333" stroke-width="1"></line><g transform="translate(0,0) scale(1)" id="container-astrology-radix-planets-Sun"><path d="m428, 811 -2.18182,0.727268 -2.181819,1.454543 -1.454552,2.18182 -0.727268,2.181819 0,2.181819 0.727268,2.181819 1.454552,2.18182 2.181819,1.454544 2.18182,0.727276 2.18181,0 2.18182,-0.727276 2.181819,-1.454544 1.454552,-2.18182 0.727268,-2.181819 0,-2.181819 -0.727268,-2.181819 -1.454552,-2.18182 -2.181819,-1.454543 -2.18182,-0.727268 -2.18181,0 m 0.727267,6.54545 -0.727267,0.727276 0,0.727275 0.727267,0.727268 0.727276,0 0.727267,-0.727268 0,-0.727275 -0.727267,-0.727276 -0.727276,0 m 0,0.727276 0,0.727275 0.727276,0 0,-0.727275 -0.727276,0" stroke="#000" stroke-width="1.8" fill="none"></path></g><text x="435.81484967908335" y="809.4460643168073" font-size="8" fill="#000" font-family="serif" dominant-baseline="central" transform="translate(0,0) scale(1)">27°47'</text><text x="435.81484967908335" y="816.5889214596644" font-size="8" fill="#000" font-family="serif" dominant-baseline="central" transform="translate(0,0) scale(1)"></text><line x1="443.6701233289486" y1="854.1418113316848" x2="444.71326919322735" y2="847.5836296403573" stroke="#333" stroke-width="1"></line><g transform="translate(0,0) scale(1)" id="container-astrology-radix-planets-Mars"><path d="m451, 821 c -5.247438,-4.150623 -11.6993,3.205518 -7.018807,7.886007 4.680494,4.680488 12.036628,-1.771382 7.885999,-7.018816 z m 0,0 0.433597,0.433595 3.996566,-4.217419 m -3.239802,-0.05521 3.295015,0 0.110427,3.681507" stroke="#000" stroke-width="1.8" fill="none"></path></g><text x="455.72681110777285" y="813.2489178115962" font-size="8" fill="#000" font-family="serif" dominant-baseline="central" transform="translate(0,0) scale(1)">01°20'</text><text x="455.72681110777285" y="820.3917749544534" font-size="8" fill="#000" font-family="serif" dominant-baseline="central" transform="translate(0,0) scale(1)"></text><line x1="583.7266200077344" y1="848.6822774979294" x2="582.1761270446282" y2="842.2251982850046" stroke="#333" stroke-width="1"></line><g transform="translate(0,0) scale(1)" id="container-astrology-radix-planets-Saturn"><path d="m581, 828 c -0.52222,0.52221 -1.04445,1.04444 -1.56666,1.04444 -0.52222,0 -1.56667,-0.52223 -1.56667,-1.56667 0,-1.04443 0.52223,-2.08887 1.56667,-3.13332 1.04444,-1.04443 2.08888,-3.13331 2.08888,-5.22219 0,-2.08888 -1.04444,-4.17776 -3.13332,-4.17776 -1.97566,0 -3.65555,1.04444 -4.69998,3.13333 m -2.55515,-5.87499 6.26664,0 m -3.71149,-2.48054 0,15.14438" stroke="#000" stroke-width="1.8" fill="none"></path></g><text x="583.5657432396771" y="808.2656361231643" font-size="8" fill="#000" font-family="serif" dominant-baseline="central" transform="translate(0,0) scale(1)">23°52'</text><text x="583.5657432396771" y="815.4084932660214" font-size="8" fill="#000" font-family="serif" dominant-baseline="central" transform="translate(0,0) scale(1)"></text><line x1="174.93463371407643" y1="651.4000831586985" x2="180.95436271937126" y2="648.5963779150189" stroke="#333" stroke-width="1"></line><g transform="translate(193.9755,633.9755) scale(0.3)" id="container-astrology-radix-planets-Pars Fortuna"><path d="M46.143 25.143a21.071 21.714 0 11-42.143 0 21.071 21.714 0 1142.143 0z" transform="matrix(-1.1112 0 0 -1.0783 52.86 52.112)" stroke="#000" stroke-width="6" fill="none"></path><path d="M13.126 44.08L37 6M37 44L12.122 4.515" stroke="#000" stroke-width="6" fill="none"></path></g><text x="210.43395548893434" y="628.192982222589" font-size="8" fill="#000" font-family="serif" dominant-baseline="central" transform="translate(0,0) scale(1)">05°21'</text><text x="210.43395548893434" y="635.3358393654461" font-size="8" fill="#000" font-family="serif" dominant-baseline="central" transform="translate(0,0) scale(1)">Rₓ</text></g><g id="container-astrology-radix-cusps"><line x1="287.5" y1="500" x2="141.40625" y2="499.99999999999994" stroke="#333" stroke-width="1.6"></line><g id="container-astrology-radix-cusps-1" transform="translate(0,0) scale(1)"><path d="m282, 543 -2.5128753,7.7578884 1.00515009,0 m 3.01545031,-9.5832737 -1.0051501,1.8253853 -2.51287527,7.7578884 m 3.51802537,-9.5832737 -3.01545031,9.5832737 m 3.01545031,-9.5832737 -1.5077251,1.3690388 -1.50772521,0.9126929 -1.00515009,0.4563463 m 2.5128753,-0.9126927 -1.00515016,0.4563464 -1.50772514,0.4563463" stroke="#000" stroke-width="1" fill="none"></path></g><text style="transform-box: fill-box; transform: rotate(180deg); transform-origin: center"><textPath font-size="12px" fill="#000" font-family="serif" dominant-baseline="central" xlink:href="#container-astrology-radix-cusps-0-SEGMENT">10°22'</textPath></text><path d="M 126.125, 499.99999999999994 l -51.125, -6.261006760640843e-15 A 425, 425,0 ,0, 0, 110.57273170098841, 670.2098784006664 l 46.84580962773404, -20.475247137021338 A 373.875, 373.875,0 ,0, 1, 126.125, 499.99999999999994" fill="none" id="container-astrology-radix-cusps-0-SEGMENT" stroke="none" stroke-width="0"></path><line x1="305.28636585049424" y1="585.1049392003332" x2="171.42074237270896" y2="643.6145849005622" stroke="#333" stroke-width="1"></line><g id="container-astrology-radix-cusps-2" transform="translate(0,0) scale(1)"><path d="m315, 624 0,-0.4545454 0.4545454,0 0,0.9090909 -0.9090909,0 0,-0.9090909 0.4545455,-0.9090909 0.4545454,-0.4545455 1.36363637,-0.4545454 1.36363633,0 1.3636364,0.4545454 0.4545455,0.9090909 0,0.9090909 -0.4545455,0.909091 -0.9090909,0.9090909 -4.5454546,2.72727269 -0.9090909,0.90909091 -0.9090909,1.8181818 m 6.8181818,-9.0909091 0.4545455,0.9090909 0,0.9090909 -0.4545455,0.909091 -0.9090909,0.9090909 -1.36363633,0.9090909 m 1.36363633,-5 0.4545455,0.4545454 0.4545454,0.9090909 0,0.9090909 -0.4545454,0.909091 -0.9090909,0.9090909 -3.6363637,2.72727269 m -1.3636363,1.81818181 0.4545454,-0.4545454 0.9090909,0 2.27272732,0.4545454 2.27272728,0 0.4545454,-0.4545454 m -5,0 2.27272732,0.9090909 2.27272728,0 m -4.5454546,-0.9090909 2.27272732,1.3636363 1.36363638,0 0.9090909,-0.4545454 0.4545454,-0.9090909 0,-0.4545455" stroke="#000" stroke-width="1" fill="none"></path></g><text style="transform-box: fill-box; transform: rotate(180deg); transform-origin: center"><textPath font-size="12px" fill="#000" font-family="serif" dominant-baseline="central" xlink:href="#container-astrology-radix-cusps-1-SEGMENT">03°59'</textPath></text><path d="M 157.41854132872243, 649.734631263645 l -46.84580962773404, 20.475247137021338 A 425, 425,0 ,0, 0, 203.58112188204836, 804.5666572284217 l 35.65744739713006, -36.6375772960072 A 373.875, 373.875,0 ,0, 1, 157.41854132872243, 649.734631263645" fill="none" id="container-astrology-radix-cusps-1-SEGMENT" stroke="none" stroke-width="0"></path><line x1="351.7905609410242" y1="652.2833286142109" x2="249.8965715879783" y2="756.9781170364809" stroke="#333" stroke-width="1"></line><g id="container-astrology-radix-cusps-3" transform="translate(0,0) scale(1)"><path d="m381, 686 0,-0.4545454 0.45454549,0 0,0.9090909 -0.90909089,0 0,-0.9090909 0.4545454,-0.9090909 0.45454549,-0.4545455 1.36363636,-0.4545454 1.36363635,0 1.3636364,0.4545454 0.4545454,0.9090909 0,0.9090909 -0.4545454,0.909091 -0.4545455,0.4545454 -0.9090909,0.4545455 -1.36363635,0.4545454 m 2.27272725,-4.0909091 0.4545455,0.9090909 0,0.9090909 -0.4545455,0.909091 -0.4545454,0.4545454 m -0.4545455,-3.6363636 0.4545455,0.4545454 0.4545454,0.9090909 0,0.9090909 -0.4545454,0.909091 -0.9090909,0.9090909 -0.90909095,0.4545454 m -0.9090909,0 0.9090909,0 1.36363635,0.4545455 0.4545455,0.45454542 0.4545454,0.90909091 0,1.36363637 -0.4545454,0.9090909 -0.9090909,0.4545455 -1.3636364,0.4545454 -1.3636364,0 -1.3636363,-0.4545454 -0.4545455,-0.4545455 -0.4545454,-0.9090909 0,-0.90909091 0.9090909,0 0,0.90909091 -0.4545455,0 0,-0.45454546 m 5,-1.81818182 0.4545455,0.90909091 0,1.36363637 -0.4545455,0.9090909 m -1.36363635,-4.0909091 0.90909095,0.4545455 0.4545454,0.90909088 0,1.81818182 -0.4545454,0.9090909 -0.45454549,0.4545455 -0.90909091,0.4545454" stroke="#000" stroke-width="1" fill="none"></path></g><text style="transform-box: fill-box; transform: rotate(180deg); transform-origin: center"><textPath font-size="12px" fill="#000" font-family="serif" dominant-baseline="central" xlink:href="#container-astrology-radix-cusps-2-SEGMENT">26°09'</textPath></text><path d="M 239.23856927917842, 767.9290799324145 l -35.65744739713006, 36.6375772960072 A 425, 425,0 ,0, 0, 358.225707050104, 900.655774772506 l 17.05461347544337, -48.19653290645734 A 373.875, 373.875,0 ,0, 1, 239.23856927917842, 767.9290799324145" fill="none" id="container-astrology-radix-cusps-2-SEGMENT" stroke="none" stroke-width="0"></path><line x1="429.112853525052" y1="700.327887386253" x2="380.37794032352525" y2="838.0533099643019" stroke="#333" stroke-width="1.6"></line><g id="container-astrology-radix-cusps-4" transform="translate(0,0) scale(1)"><path d="m486, 718 -2.28678383,7.7750651 0.91471356,0 m 2.74414057,-9.6044922 -0.9147135,1.8294271 -2.28678386,7.7750651 m 3.20149736,-9.6044922 -2.74414057,9.6044922 m 2.74414057,-9.6044922 -7.3177083,6.8603516 7.3177083,0" stroke="#000" stroke-width="1" fill="none"></path></g><text style="transform-box: fill-box; transform: rotate(180deg); transform-origin: center"><textPath font-size="12px" fill="#000" font-family="serif" dominant-baseline="central" xlink:href="#container-astrology-radix-cusps-3-SEGMENT">20°53'</textPath></text><path d="M 375.2803205255474, 852.4592418660486 l -17.05461347544337, 48.19653290645734 A 425, 425,0 ,0, 0, 585.0089790868623, 916.4114233238678 l -10.226080131331377, -50.09184474690057 A 373.875, 373.875,0 ,0, 1, 375.2803205255474, 852.4592418660486" fill="none" id="container-astrology-radix-cusps-3-SEGMENT" stroke="none" stroke-width="0"></path><line x1="542.5044895434312" y1="708.205711661934" x2="571.72632610454" y2="851.3471384295135" stroke="#333" stroke-width="1"></line><g id="container-astrology-radix-cusps-5" transform="translate(0,0) scale(1)"><path d="m612, 686 -2.27272725,4.5454545 m 2.27272725,-4.5454545 4.54545455,0 m -4.54545455,0.4545454 3.63636365,0 m -4.0909091,0.4545455 2.2727273,0 1.8181818,-0.4545455 0.9090909,-0.4545454 m -6.8181818,4.5454545 0.4545454,-0.4545454 1.3636364,-0.4545455 1.36363636,0 1.36363634,0.4545455 0.4545455,0.4545454 0.4545454,0.90909092 0,1.36363638 -0.4545454,1.3636364 -0.9090909,0.9090909 -1.81818185,0.4545454 -1.36363635,0 -0.9090909,-0.4545454 -0.4545455,-0.4545455 -0.4545454,-0.9090909 0,-0.9090909 0.9090909,0 0,0.9090909 -0.4545455,0 0,-0.45454545 m 5,-2.72727275 0.4545455,0.90909092 0,1.36363638 -0.4545455,1.3636364 -0.9090909,0.9090909 m -0.45454544,-5.4545455 0.90909094,0.4545455 0.4545454,0.9090909 0,1.8181818 -0.4545454,1.3636364 -0.90909094,0.9090909 -0.90909091,0.4545454" stroke="#000" stroke-width="1" fill="none"></path></g><text><textPath font-size="12px" fill="#000" font-family="serif" dominant-baseline="central" xlink:href="#container-astrology-radix-cusps-4-SEGMENT">21°54'</textPath></text><path d="M 574.782898955531, 866.3195785769672 l 10.226080131331377, 50.09184474690057 A 425, 425,0 ,0, 0, 826.8127330169372, 771.6954867825377 l -39.31364935409626, -32.683368851193514 A 373.875, 373.875,0 ,0, 1, 574.782898955531, 866.3195785769672" fill="none" id="container-astrology-radix-cusps-4-SEGMENT" stroke="none" stroke-width="0"></path><line x1="663.4063665084686" y1="635.8477433912689" x2="775.7482434830407" y2="729.2430669727662" stroke="#333" stroke-width="1"></line><g id="container-astrology-radix-cusps-6" transform="translate(0,0) scale(1)"><path d="m712, 573 0,-0.4545455 -0.4545455,0 0,0.9090909 0.9090909,0 0,-0.9090909 -0.4545454,-0.9090909 -0.909091,-0.4545454 -1.3636363,0 -1.36363638,0.4545454 -0.90909092,0.9090909 -0.9090909,1.3636364 -0.4545455,1.3636364 -0.4545454,1.81818178 0,1.36363636 0.4545454,1.36363636 0.4545455,0.4545455 0.9090909,0.4545454 1.36363637,0 1.36363633,-0.4545454 0.9090909,-0.9090909 0.4545455,-0.90909096 0,-1.36363636 -0.4545455,-0.90909088 -0.4545454,-0.4545455 -0.9090909,-0.4545454 -1.36363638,0 -0.90909092,0.4545454 -0.4545454,0.4545455 -0.4545455,0.90909088 m 1.36363636,-4.54545458 -0.90909086,1.3636364 -0.4545455,1.3636364 -0.4545455,1.81818178 0,1.81818182 0.4545455,0.9090909 m 4.0909091,-0.4545454 0.4545454,-0.90909096 0,-1.36363636 -0.4545454,-0.90909088 m -0.9090909,-5 -0.90909093,0.4545454 -0.90909091,1.3636364 -0.45454546,0.9090909 -0.4545454,1.3636364 -0.4545455,1.81818178 0,2.27272732 0.4545455,0.9090909 0.4545454,0.4545454 m 1.36363637,0 0.90909093,-0.4545454 0.4545454,-0.4545455 0.4545455,-1.36363636 0,-1.81818182 -0.4545455,-0.90909092 -0.4545454,-0.4545454" stroke="#000" stroke-width="1" fill="none"></path></g><text><textPath font-size="12px" fill="#000" font-family="serif" dominant-baseline="central" xlink:href="#container-astrology-radix-cusps-5-SEGMENT">00°38'</textPath></text><path d="M 787.4990836628408, 739.0121179313443 l 39.31364935409626, 32.683368851193514 A 425, 425,0 ,0, 0, 925, 500 l -51.125, 0 A 373.875, 373.875,0 ,0, 1, 787.4990836628408, 739.0121179313443" fill="none" id="container-astrology-radix-cusps-5-SEGMENT" stroke="none" stroke-width="0"></path><line x1="712.5" y1="500" x2="858.59375" y2="500" stroke="#333" stroke-width="1.6"></line><g id="container-astrology-radix-cusps-7" transform="translate(0,0) scale(1)"><path d="m714, 450 -0.9090909,2.7272727 m 6.8181818,-2.7272727 -0.4545454,1.3636363 -0.909091,1.3636364 -1.8181818,2.2727273 -0.90909088,1.36363633 -0.45454546,1.36363637 -0.45454545,1.8181818 m 0.90909091,-3.63636362 -0.90909091,1.81818182 -0.45454546,1.8181818 m 4.09090905,-6.8181818 -2.72727268,2.72727272 -0.90909091,1.36363637 -0.45454546,0.90909091 -0.45454545,1.8181818 0.90909091,0 m -1.36363641,-8.1818182 1.36363641,-1.3636363 0.90909091,0 2.27272728,1.3636363 m -3.63636365,-0.9090909 1.36363637,0 2.27272728,0.9090909 m -4.5454546,0 0.90909095,-0.4545454 1.36363637,0 2.27272728,0.4545454 0.9090909,0 0.4545455,-0.4545454 0.4545454,-0.9090909" stroke="#000" stroke-width="1" fill="none"></path></g><text><textPath font-size="12px" fill="#000" font-family="serif" dominant-baseline="central" xlink:href="#container-astrology-radix-cusps-6-SEGMENT">10°22'</textPath></text><path d="M 873.875, 500 l 51.125, 0 A 425, 425,0 ,0, 0, 889.4272682990118, 329.7901215993338 l -46.845809627734056, 20.47524713702131 A 373.875, 373.875,0 ,0, 1, 873.875, 500" fill="none" id="container-astrology-radix-cusps-6-SEGMENT" stroke="none" stroke-width="0"></path><line x1="694.7136341495059" y1="414.8950607996669" x2="828.5792576272911" y2="356.385415099438" stroke="#333" stroke-width="1"></line><g id="container-astrology-radix-cusps-8" transform="translate(0,0) scale(1)"><path d="m682, 368 -1.3631244,0.4543748 -0.4543748,0.4543748 -0.4543748,0.9087496 0,1.3631244 0.4543748,0.9087496 0.9087496,0.4543748 1.3631244,0 1.3631244,-0.4543748 0.9087496,-0.4543748 0.4543748,-0.9087496 0,-1.3631244 -0.4543748,-0.9087496 -0.9087496,-0.4543748 -1.8174992,0 m 0.9087496,0 -2.271874,0.4543748 m 0,0.4543748 -0.4543748,0.9087496 0,1.8174992 0.4543748,0.4543748 m -0.4543748,0 1.3631244,0.4543748 m 0.4543748,0 1.8174992,-0.4543748 m 0.4543748,-0.4543748 0.4543748,-0.9087496 0,-1.3631244 -0.4543748,-0.9087496 m 0.4543748,0 -1.8174992,-0.4543748 m -0.9087496,0 -0.9087496,0.9087496 -0.4543748,0.9087496 0,1.8174992 0.4543748,0.9087496 m 1.3631244,0 0.9087496,-0.4543748 0.4543748,-0.4543748 0.4543748,-0.9087496 0,-1.8174992 -0.4543748,-0.9087496 m -2.7262488,4.543748 -1.8174992,0.4543748 -0.9087496,0.90874964 -0.4543748,0.9087496 0,1.36312436 0.4543748,0.9087496 1.3631244,0.4543748 1.8174992,0 1.8174992,-0.4543748 0.4543748,-0.4543748 0.4543748,-0.9087496 0,-1.36312436 -0.4543748,-0.9087496 -0.4543748,-0.45437484 -0.9087496,-0.4543748 m -0.9087496,0 -2.271874,0.4543748 m 0.4543748,0 -0.9087496,0.90874964 -0.4543748,0.9087496 0,1.36312436 0.4543748,0.9087496 m -0.4543748,0 2.271874,0.4543748 2.7262488,-0.4543748 m 0,-0.4543748 0.4543748,-0.9087496 0,-1.36312436 -0.4543748,-0.9087496 m 0,-0.45437484 -1.3631244,-0.4543748 m -0.9087496,0 -0.9087496,0.4543748 -0.9087496,0.90874964 -0.4543748,0.9087496 0,1.36312436 0.4543748,0.9087496 0.4543748,0.4543748 m 1.8174992,0 0.9087496,-0.4543748 0.4543748,-0.4543748 0.4543748,-0.9087496 0,-1.81749916 -0.4543748,-0.90874964 -0.4543748,-0.4543748" stroke="#000" stroke-width="1" fill="none"></path></g><text><textPath font-size="12px" fill="#000" font-family="serif" dominant-baseline="central" xlink:href="#container-astrology-radix-cusps-7-SEGMENT">03°59'</textPath></text><path d="M 842.5814586712777, 350.2653687363552 l 46.845809627734056, -20.47524713702131 A 425, 425,0 ,0, 0, 796.4188781179516, 195.43334277157828 l -35.65744739713006, 36.6375772960072 A 373.875, 373.875,0 ,0, 1, 842.5814586712777, 350.2653687363552" fill="none" id="container-astrology-radix-cusps-7-SEGMENT" stroke="none" stroke-width="0"></path><line x1="648.2094390589758" y1="347.71667138578914" x2="750.1034284120217" y2="243.0218829635192" stroke="#333" stroke-width="1"></line><g id="container-astrology-radix-cusps-9" transform="translate(0,0) scale(1)"><path d="m618, 309 -0.4545455,0.9090909 -0.4545454,0.4545455 -0.9090909,0.45454542 -1.36363638,0 -0.90909092,-0.45454542 -0.4545454,-0.4545455 -0.4545455,-0.9090909 0,-1.3636364 0.4545455,-0.9090909 0.90909086,-0.9090909 1.36363637,-0.4545454 1.36363637,0 0.9090909,0.4545454 0.4545455,0.4545455 0.4545454,1.3636363 0,1.3636364 -0.4545454,1.81818182 -0.4545455,1.36363637 -0.9090909,1.36363641 -0.9090909,0.9090909 -1.36363638,0.4545454 -1.36363632,0 -0.909091,-0.4545454 -0.4545454,-0.9090909 0,-0.90909096 0.9090909,0 0,0.90909096 -0.4545455,0 0,-0.4545455 m 1.3636364,-3.1818182 -0.4545454,-0.9090909 0,-1.3636364 0.4545454,-0.9090909 m 4.0909091,-0.4545454 0.4545455,0.9090909 0,1.8181818 -0.4545455,1.81818182 -0.4545455,1.36363637 -0.9090909,1.36363641 m -1.81818178,-2.72727278 -0.45454546,-0.45454542 -0.45454546,-0.9090909 0,-1.8181819 0.45454546,-1.3636363 0.45454546,-0.4545455 0.90909091,-0.4545454 m 1.36363637,0 0.4545454,0.4545454 0.4545455,0.9090909 0,2.2727273 -0.4545455,1.81818182 -0.4545454,1.36363637 -0.4545455,0.90909091 -0.90909087,1.3636364 -0.90909091,0.4545454" stroke="#000" stroke-width="1" fill="none"></path></g><text><textPath font-size="12px" fill="#000" font-family="serif" dominant-baseline="central" xlink:href="#container-astrology-radix-cusps-8-SEGMENT">26°09'</textPath></text><path d="M 760.7614307208216, 232.07092006758546 l 35.65744739713006, -36.6375772960072 A 425, 425,0 ,0, 0, 641.7742929498955, 99.34422522749378 l -17.05461347544331, 48.196532906457364 A 373.875, 373.875,0 ,0, 1, 760.7614307208216, 232.07092006758546" fill="none" id="container-astrology-radix-cusps-8-SEGMENT" stroke="none" stroke-width="0"></path><line x1="570.8871464749477" y1="299.6721126137469" x2="619.6220596764744" y2="161.94669003569788" stroke="#333" stroke-width="1.6"></line><g id="container-astrology-radix-cusps-10" transform="translate(0,0) scale(1)"><path d="m512, 275 -2.28795747,7.7790553 0.91518297,0 m 2.7455489,-9.6094213 -0.9151829,1.830366 -2.28795748,7.7790553 m 3.20314038,-9.6094213 -2.7455489,9.6094213 m 2.7455489,-9.6094213 -1.3727744,1.3727745 -1.3727745,0.915183 -0.91518297,0.4575915 m 2.28795747,-0.915183 -0.91518301,0.4575915 -1.37277446,0.4575915" stroke="#000" stroke-width="1" fill="none"></path><path d="m518.5, 273.5 -1.36363638,0.4545454 -0.90909092,0.9090909 -0.9090909,1.3636364 -0.4545455,1.3636364 -0.4545454,1.81818178 0,1.36363636 0.4545454,1.36363636 0.4545455,0.4545455 0.9090909,0.4545454 0.90909092,0 1.36363638,-0.4545454 0.9090909,-0.9090909 0.9090909,-1.36363641 0.4545455,-1.36363637 0.4545454,-1.81818182 0,-1.3636364 -0.4545454,-1.3636363 -0.4545455,-0.4545455 -0.9090909,-0.4545454 -0.9090909,0 m -1.36363638,0.9090909 -0.90909092,0.9090909 -0.4545454,0.9090909 -0.4545455,1.3636364 -0.4545455,1.81818178 0,1.81818182 0.4545455,0.9090909 m 3.1818182,0 0.9090909,-0.9090909 0.4545454,-0.90909091 0.4545455,-1.36363637 0.4545455,-1.81818182 0,-1.8181818 -0.4545455,-0.9090909 m -1.8181818,-0.9090909 -0.90909093,0.4545454 -0.90909091,1.3636364 -0.45454546,0.9090909 -0.4545454,1.3636364 -0.4545455,1.81818178 0,2.27272732 0.4545455,0.9090909 0.4545454,0.4545454 m 0.90909092,0 0.90909091,-0.4545454 0.90909087,-1.3636364 0.4545455,-0.90909091 0.4545454,-1.36363637 0.4545455,-1.81818182 0,-2.2727273 -0.4545455,-0.9090909 -0.4545454,-0.4545454" stroke="#000" stroke-width="1" fill="none"></path></g><text><textPath font-size="12px" fill="#000" font-family="serif" dominant-baseline="central" xlink:href="#container-astrology-radix-cusps-9-SEGMENT">20°53'</textPath></text><path d="M 624.7196794744522, 147.54075813395116 l 17.05461347544331, -48.196532906457364 A 425, 425,0 ,0, 0, 414.9910209131379, 83.58857667613216 l 10.22608013133135, 50.09184474690057 A 373.875, 373.875,0 ,0, 1, 624.7196794744522, 147.54075813395116" fill="none" id="container-astrology-radix-cusps-9-SEGMENT" stroke="none" stroke-width="0"></path><line x1="457.495510456569" y1="291.79428833806605" x2="428.2736738954601" y2="148.6528615704865" stroke="#333" stroke-width="1"></line><g id="container-astrology-radix-cusps-11" transform="translate(0,0) scale(1)"><path d="m383, 306 -2.28795747,7.7790553 0.91518297,0 m 2.7455489,-9.6094213 -0.9151829,1.830366 -2.28795748,7.7790553 m 3.20314038,-9.6094213 -2.7455489,9.6094213 m 2.7455489,-9.6094213 -1.3727744,1.3727745 -1.3727745,0.915183 -0.91518297,0.4575915 m 2.28795747,-0.915183 -0.91518301,0.4575915 -1.37277446,0.4575915" stroke="#000" stroke-width="1" fill="none"></path><path d="m389, 306 -2.28795747,7.7790553 0.91518297,0 m 2.7455489,-9.6094213 -0.9151829,1.830366 -2.28795748,7.7790553 m 3.20314038,-9.6094213 -2.7455489,9.6094213 m 2.7455489,-9.6094213 -1.3727744,1.3727745 -1.3727745,0.915183 -0.91518297,0.4575915 m 2.28795747,-0.915183 -0.91518301,0.4575915 -1.37277446,0.4575915" stroke="#000" stroke-width="1" fill="none"></path></g><text style="transform-box: fill-box; transform: rotate(180deg); transform-origin: center"><textPath font-size="12px" fill="#000" font-family="serif" dominant-baseline="central" xlink:href="#container-astrology-radix-cusps-10-SEGMENT">21°54'</textPath></text><path d="M 425.21710104446925, 133.68042142303273 l -10.22608013133135, -50.09184474690057 A 425, 425,0 ,0, 0, 173.18726698306278, 228.30451321746227 l 39.31364935409627, 32.68336885119351 A 373.875, 373.875,0 ,0, 1, 425.21710104446925, 133.68042142303273" fill="none" id="container-astrology-radix-cusps-10-SEGMENT" stroke="none" stroke-width="0"></path><line x1="336.59363349153136" y1="364.15225660873114" x2="224.25175651695923" y2="270.7569330272338" stroke="#333" stroke-width="1"></line><g id="container-astrology-radix-cusps-12" transform="translate(0,0) scale(1)"><path d="m288, 421 -2.28795747,7.7790553 0.91518297,0 m 2.7455489,-9.6094213 -0.9151829,1.830366 -2.28795748,7.7790553 m 3.20314038,-9.6094213 -2.7455489,9.6094213 m 2.7455489,-9.6094213 -1.3727744,1.3727745 -1.3727745,0.915183 -0.91518297,0.4575915 m 2.28795747,-0.915183 -0.91518301,0.4575915 -1.37277446,0.4575915" stroke="#000" stroke-width="1" fill="none"></path><path d="m292, 422 0,-0.4545454 0.4545454,0 0,0.9090909 -0.9090909,0 0,-0.9090909 0.4545455,-0.9090909 0.4545454,-0.4545455 1.36363637,-0.4545454 1.36363633,0 1.3636364,0.4545454 0.4545455,0.9090909 0,0.9090909 -0.4545455,0.909091 -0.9090909,0.9090909 -4.5454546,2.72727269 -0.9090909,0.90909091 -0.9090909,1.8181818 m 6.8181818,-9.0909091 0.4545455,0.9090909 0,0.9090909 -0.4545455,0.909091 -0.9090909,0.9090909 -1.36363633,0.9090909 m 1.36363633,-5 0.4545455,0.4545454 0.4545454,0.9090909 0,0.9090909 -0.4545454,0.909091 -0.9090909,0.9090909 -3.6363637,2.72727269 m -1.3636363,1.81818181 0.4545454,-0.4545454 0.9090909,0 2.27272732,0.4545454 2.27272728,0 0.4545454,-0.4545454 m -5,0 2.27272732,0.9090909 2.27272728,0 m -4.5454546,-0.9090909 2.27272732,1.3636363 1.36363638,0 0.9090909,-0.4545454 0.4545454,-0.9090909 0,-0.4545455" stroke="#000" stroke-width="1" fill="none"></path></g><text style="transform-box: fill-box; transform: rotate(180deg); transform-origin: center"><textPath font-size="12px" fill="#000" font-family="serif" dominant-baseline="central" xlink:href="#container-astrology-radix-cusps-11-SEGMENT">00°38'</textPath></text><path d="M 212.50091633715908, 260.9878820686558 l -39.31364935409627, -32.68336885119351 A 425, 425,0 ,0, 0, 75, 499.99999999999994 l 51.125, 6.261006760640843e-15 A 373.875, 373.875,0 ,0, 1, 212.50091633715908, 260.9878820686558" fill="none" id="container-astrology-radix-cusps-11-SEGMENT" stroke="none" stroke-width="0"></path></g><g id="container-astrology-radix-axis"><g transform="translate(0,0) scale(1)"><path d="m 54, 498 -0.563078,-1.1261527 -1.689228,-0.5630765 -1.689229,0 -1.68923,0.5630765 -0.563076,1.1261527 0.563076,1.12615272 1.126154,0.56307636 2.815381,0.56307635 1.126152,0.56307647 0.563078,1.1261526 0,0.5630763 -0.563078,1.1261528 -1.689228,0.5630764 -1.689229,0 -1.68923,-0.5630764 -0.563076,-1.1261528 m -6.756916,-10.135374 -4.504611,11.8246032 m 4.504611,-11.8246032 4.504611,11.8246032 m -7.3199925,-3.94153457 5.6307625,0" stroke="#333" stroke-width="1.6" fill="none"></path></g><line x1="75" y1="499.99999999999994" x2="61.71875" y2="499.99999999999994" stroke="#333" stroke-width="1.6"></line><g transform="translate(0,0) scale(1)"><path d="m 355, 919 -1.208852,-1.2088514 -1.208851,-0.6044258 -1.813278,0 -1.208852,0.6044258 -1.20885,1.2088514 -0.604426,1.81327715 0,1.20885135 0.604426,1.8132772 1.20885,1.2088513 1.208852,0.6044259 1.813278,0 1.208851,-0.6044259 1.208852,-1.2088513 m -11.4840902,-10.8796629 0,12.6929401" stroke="#333" stroke-width="1.6" fill="none"></path></g><line x1="358.225707050104" y1="900.655774772506" x2="353.79526039541975" y2="913.1762677341469" stroke="#333" stroke-width="1.6"></line><g transform="translate(0,0) scale(1)"><path d="m 962, 499 -0.5625,-1.125 -1.6875,-0.5625 -1.6875,0 -1.6875,0.5625 -0.5625,1.125 0.5625,1.125 1.125,0.5625 2.8125,0.5625 1.125,0.5625 0.5625,1.125 0,0.5625 -0.5625,1.125 -1.6875,0.5625 -1.6875,0 -1.6875,-0.5625 -0.5625,-1.125 m -11.25,-10.125 0,11.8125 m 0,-11.8125 3.9375,0 1.6875,0.5625 1.125,1.125 0.5625,1.125 0.5625,1.6875 0,2.8125 -0.5625,1.6875 -0.5625,1.125 -1.125,1.125 -1.6875,0.5625 -3.9375,0" stroke="#333" stroke-width="1.6" fill="none"></path></g><line x1="925" y1="500" x2="938.28125" y2="500" stroke="#333" stroke-width="1.6"></line><g transform="translate(0,0) scale(1)"><path d="m 654, 68 -1.004085,-1.0040845 -1.004084,-0.5020423 -1.506127,0 -1.004085,0.5020423 -1.004084,1.0040845 -0.502043,1.50612689 0,1.00408458 0.502043,1.50612683 1.004084,1.0040846 1.004085,0.5020423 1.506127,0 1.004084,-0.5020423 1.004085,-1.0040846 m -17.57148,-9.0367612 0,10.5428881 m 0,-10.5428881 4.016338,10.5428881 m 4.016338,-10.5428881 -4.016338,10.5428881 m 4.016338,-10.5428881 0,10.5428881" stroke="#333" stroke-width="1.6" fill="none"></path></g><line x1="641.7742929498955" y1="99.34422522749378" x2="646.2047396045798" y2="86.82373226585298" stroke="#333" stroke-width="1.6"></line></g><g id="container-astrology-radix-circles"><circle cx="500" cy="500" r="212.5" fill="none" stroke="#333" stroke-width="2"></circle><circle cx="500" cy="500" r="425" fill="none" stroke="#333" stroke-width="2"></circle><circle cx="500" cy="500" r="371.875" fill="none" stroke="#333" stroke-width="2"></circle></g></g></g></svg>