<svg id="Layer_1" enable-background="new 0 0 512 512" height="512" viewBox="0 0 512 512" width="512" xmlns="http://www.w3.org/2000/svg"><path d="m256 512c-107.523 0-195-87.477-195-195 0-65.1 51.359-129.885 101.028-192.536 36.367-45.874 73.972-93.309 73.972-124.464h40c0 31.626 37.64 78.893 74.041 124.603 49.635 62.328 100.959 126.778 100.959 192.397 0 107.523-87.477 195-195 195zm-.085-449.5c-15.683 27.706-38.741 56.791-62.542 86.813-43.298 54.616-92.373 116.519-92.373 167.687 0 85.468 69.532 155 155 155s155-69.532 155-155c0-51.638-49.01-113.181-92.25-167.479-23.935-30.057-47.125-59.179-62.835-87.021zm.085 369.5v-40c39.093 0 71.948-30.51 74.799-69.46l39.893 2.92c-2.113 28.88-14.989 55.722-36.256 75.581-21.38 19.964-49.236 30.959-78.436 30.959zm64.383-143.15c-1.738-3.234-3.697-6.658-5.821-10.177-12.197-20.193-28.777-41.872-44.878-62.29l31.41-24.768c16.9 21.434 34.378 44.31 47.707 66.377 2.471 4.092 4.764 8.103 6.816 11.923z"/></svg>