<svg id="Layer_1" enable-background="new 0 0 512.013 512.013" height="512" viewBox="0 0 512.013 512.013" width="512" xmlns="http://www.w3.org/2000/svg"><path d="m472.008 140.945c0-41.775-13.089-81.153-37.852-113.877l31.896-24.137c30.064 39.729 45.955 87.454 45.955 138.014zm-3.221 109.803c57.535 57.537 57.535 151.154 0 208.69-33.86 33.86-78.88 52.527-126.765 52.562-13.845.011-58.054.014-110.273.014-100.124-.001-229.764-.014-231.743-.014l.004-40c3.011 0 301.612.031 341.983-.001 37.212-.026 72.196-14.532 98.509-40.846 41.939-41.939 41.939-110.182 0-152.122-31.898-31.899-83.804-31.899-115.702.001-24.467 24.466-25.189 65.083-1.577 88.694 17.803 17.805 45.696 17.803 63.499 0 4.054-4.053 6.286-9.18 6.286-14.435s-2.232-10.382-6.286-14.435c-2.486-2.487-5.794-3.857-9.312-3.857s-6.825 1.37-9.312 3.857l-28.285-28.285c20.732-20.73 54.461-20.73 75.193 0 23.954 23.955 23.954 61.484 0 85.438-16.114 16.116-37.434 24.991-60.035 24.991-22.6 0-43.92-8.874-60.034-24.988-7.325-7.325-13.348-15.63-17.975-24.646-2.879 3.462-5.931 6.827-9.176 10.072-33.86 33.86-78.88 52.527-126.765 52.562h-141.013v-40l141-.001c37.197-.026 72.182-14.532 98.494-40.846 41.94-41.94 41.94-110.182 0-152.121-15.497-15.497-36.043-24.032-57.851-24.032-21.81 0-42.354 8.535-57.852 24.033-24.467 24.466-25.188 65.084-1.577 88.696 17.804 17.804 45.696 17.803 63.5-.001 8.363-8.364 8.363-20.507-.001-28.871-5.133-5.135-13.488-5.134-18.623 0l-28.285-28.284c20.732-20.73 54.461-20.73 75.193 0 23.954 23.955 23.954 61.484 0 85.439-16.114 16.114-37.434 24.988-60.034 24.988-22.601 0-43.921-8.874-60.034-24.987-19.204-19.204-29.495-45.131-28.979-73.003.507-27.402 11.358-53.065 30.556-72.261 23.052-23.053 53.643-35.749 86.136-35.749 2.299 0 4.586.071 6.864.197-10.505-34.742-2.059-74.039 25.35-101.448 23.054-23.053 54.114-35.749 87.461-35.749 33.348 0 64.408 12.696 87.461 35.749 27.871 27.872 43.221 65.231 43.221 105.197 0 27.8-7.435 54.334-21.336 77.296 21.805 5.127 41.84 16.231 58.115 32.506zm-107.279-33.922c19.675-20.205 30.5-47.09 30.5-75.881 0-29.281-11.189-56.596-31.506-76.913-15.497-15.497-36.513-24.032-59.176-24.032-22.662 0-43.679 8.535-59.177 24.033-24.033 24.034-24.033 63.141.001 87.175 17.838 17.837 45.784 17.838 63.624 0 8.367-8.368 8.367-21.983-.001-30.351-5.133-5.134-13.488-5.133-18.623 0l-28.285-28.284c20.732-20.73 54.461-20.73 75.193 0 23.963 23.964 23.963 62.956 0 86.919-12.011 12.011-26.929 19.992-43.121 23.282 7.162 12.292 12.403 25.402 15.717 38.895 16.02-12.849 34.792-21.338 54.854-24.843zm-217.134-115.512c1.164-26.642 9.745-53.045 25.873-75.723l-32.598-23.182c-24.119 33.914-35.106 74.323-33.158 114.143 12.552-6.839 25.943-11.957 39.883-15.238z"/></svg>