<svg id="Layer_1" enable-background="new 0 0 512.326 512.326" height="512" viewBox="0 0 512.326 512.326" width="512" xmlns="http://www.w3.org/2000/svg"><path d="m84.296 76.069c33.404-16.38 86.947-35.906 152.331-35.906 44.695 0 87.791 10.698 128.474 31.826-57.391 10.84-100.938 61.346-100.938 121.841 0 33.114 12.921 64.158 36.382 87.411 23.372 23.166 54.489 35.923 87.618 35.923s64.246-12.757 87.618-35.923c23.461-23.253 36.382-54.296 36.382-87.411 0-33.5-13.359-63.935-35.023-86.271l.007-.006c-.943-1.116-23.565-27.647-64.336-54.032-53.938-34.907-114.862-53.358-176.185-53.358-73.702 0-133.834 22.111-171.301 40.661-40.828 20.214-64.344 40.593-65.325 41.45l26.295 30.143c.21-.182 21.427-18.414 58.001-36.348zm303.867 201.094c-46.318 0-84-37.383-84-83.333 0-46.318 37.682-84 84-84s84 37.682 84 84c0 45.95-37.682 83.333-84 83.333zm97.868 122.746c-.21.182-21.427 18.414-58.001 36.348-33.404 16.38-86.947 35.906-152.331 35.906-44.423 0-87.412-10.717-128.167-31.885 57.239-10.962 100.63-61.395 100.63-121.781 0-33.114-12.921-64.158-36.382-87.411-23.372-23.166-54.489-35.923-87.618-35.923s-64.246 12.757-87.618 35.923c-23.461 23.253-36.382 54.296-36.382 87.411 0 32.844 12.841 62.742 33.759 84.951l-.023.02c.956 1.129 23.874 27.955 64.933 54.654 54.37 35.354 115.53 54.042 176.868 54.042 73.702 0 133.834-22.112 171.301-40.661 40.829-20.214 64.345-40.593 65.326-41.451zm-361.868-164.746c46.318 0 84 37.383 84 83.333 0 46.318-37.682 84-84 84s-84-37.682-84-84c0-45.95 37.682-83.333 84-83.333z"/></svg>