<svg id="Layer_1" enable-background="new 0 0 512 512" height="512" viewBox="0 0 512 512" width="512" xmlns="http://www.w3.org/2000/svg"><path d="m370.503 152.876-31.887 24.144c3.303 4.49 13.355 18.155 13.355 26.875 0 19.357-15.47 35.105-34.485 35.105-19.016 0-34.486-15.748-34.486-35.105 0-6.589 1.982-14.587 5.731-23.127 26.652-60.712 11.961-130.321-36.558-173.212-1.063-.94-8.808-7.556-8.808-7.556h-26.751l-1.543 18.322c-3.256 38.666-35.136 79.989-68.888 123.738-41.879 54.283-85.183 110.415-85.183 174.94 0 107.523 87.477 195 195 195s195-87.477 195-195c0-56.117-39.766-111.849-80.497-164.124zm-114.503 318.124c-20.953 0-38-17.033-38-37.971 0-12.796 12.811-30.279 24.113-45.703 5.705-7.786 11.278-15.392 15.859-23.021 19.606 20.3 36.028 47.702 36.028 68.724 0 20.938-17.047 37.971-38 37.971zm75.59-18.725c1.57-6.158 2.41-12.605 2.41-19.246 0-43.645-37.335-93.56-72.463-118.366l-5.187-3.663h-27.35v20c0 6.547-11.069 21.653-19.151 32.684-14.929 20.372-31.849 43.462-31.849 69.345 0 6.64.84 13.087 2.41 19.246-47.342-26.559-79.41-77.238-79.41-135.275 0-50.889 39.07-101.531 76.853-150.507 27.517-35.667 53.915-69.886 67.667-105.521 18.823 30.211 21.872 68.894 6.584 103.716-6.042 13.762-9.105 26.953-9.105 39.206.001 41.414 33.415 75.106 74.487 75.106 28.397 0 53.132-16.104 65.695-39.732 16.457 26.776 27.819 53.194 27.819 77.732 0 58.037-32.068 108.716-79.41 135.275z"/></svg>