<svg id="Layer_1" enable-background="new 0 0 512 512" height="512" viewBox="0 0 512 512" width="512" xmlns="http://www.w3.org/2000/svg"><path d="m418.5 373v-373h-40v373h-233.612c43.347-27.651 75.288-62.46 97.076-91.847 43.891-59.2 63.537-118.776 63.537-151.559-.001-71.458-58.137-129.594-129.596-129.594-71.905 0-130.405 57.869-130.405 129h40c0-49.075 40.556-89 90.405-89 49.403 0 89.595 40.192 89.595 89.595 0 26.164-19.122 78.441-55.669 127.736-30.72 41.435-86.91 94.916-166.331 115.669v40h335v99h40v-99h50v-40z"/></svg>