<svg id="Layer_1" enable-background="new 0 0 512 512" height="512" viewBox="0 0 512 512" width="512" xmlns="http://www.w3.org/2000/svg"><path d="m217.899 512c-40.712 0-81.243-9.808-117.212-28.362l-62.586-32.285 70.213-5.43c98.459-7.615 175.585-91.039 175.585-189.923s-77.126-182.308-175.585-189.923l-70.211-5.43 62.584-32.285c35.968-18.554 76.499-28.362 117.212-28.362 68.38 0 132.668 26.629 181.02 74.98 48.352 48.352 74.98 112.639 74.98 181.02 0 68.38-26.629 132.667-74.98 181.019s-112.64 74.981-181.02 74.981zm-36.243-42.993c11.857 1.993 23.95 2.993 36.243 2.993 119.103 0 216-96.897 216-216s-96.897-216-216-216c-12.293 0-24.386 1-36.243 2.992 30.264 12.54 57.756 31.54 80.58 56.086 39.764 42.765 61.663 98.494 61.663 156.922s-21.899 114.157-61.663 156.921c-22.824 24.547-50.317 43.547-80.58 56.086z"/></svg>