<svg id="Layer_1" enable-background="new 0 0 511.906 511.906" height="512" viewBox="0 0 511.906 511.906" width="512" xmlns="http://www.w3.org/2000/svg"><path d="m353.906 0v40h89.53l-117.056 117.057c-78.482-64.16-194.719-59.655-267.895 13.522-77.98 77.979-77.98 204.863 0 282.843 38.99 38.989 90.206 58.484 141.421 58.484s102.432-19.495 141.421-58.484c73.239-73.24 77.686-189.613 13.353-268.097l117.226-117.226v90.901h40v-159zm-40.862 425.137c-31.196 31.196-72.16 46.792-113.137 46.788-40.968-.004-81.949-15.6-113.137-46.788-62.384-62.384-62.384-163.89 0-226.274 31.192-31.192 72.165-46.788 113.137-46.788s81.945 15.596 113.137 46.788c62.383 62.384 62.383 163.89 0 226.274z"/></svg>