<svg id="Layer_1" enable-background="new 0 0 512.118 512.118" height="512" viewBox="0 0 512.118 512.118" width="512" xmlns="http://www.w3.org/2000/svg"><path d="m430.701 27.477-29.268-27.265c-.59.629-60.014 62.906-144.508 62.906-84.691 0-146.035-62.487-146.644-63.118l-14.417 13.862-14.448 13.83c2.046 2.138 36.624 37.656 91.748 59.179-45.689 28.203-76.207 78.725-76.207 136.247 0 81.452 61.181 148.88 140 158.752v40.248h-50v40h50v50h40v-50h50v-40h-50v-40.248c78.819-9.873 140-77.3 140-158.752 0-57.6-30.599-108.182-76.391-136.362 54.535-21.592 88.145-57.137 90.135-59.279zm-53.744 195.641c0 66.168-53.832 120-120 120s-120-53.832-120-120 53.832-120 120-120 120 53.831 120 120z"/></svg>