<svg id="Layer_1" enable-background="new 0 0 512.926 512.926" height="512" viewBox="0 0 512.926 512.926" width="512" xmlns="http://www.w3.org/2000/svg"><path d="m512.926 74.633-74.142-74.143-74.142 74.142 28.284 28.284 26.537-26.537v94.056c0 83.108-62.522 151.881-143 161.772v-255.488l26.197 26.197 28.284-28.284-74.142-74.142-74.142 74.143 28.284 28.284 25.519-25.519v254.809c-80.478-9.891-143-78.663-143-161.772v-94.055l26.537 26.537 28.284-28.284-74.142-74.143-74.142 74.143 28.284 28.284 25.179-25.179v92.697c0 105.186 80.418 191.936 183 202.015v49.985h-50v40h50v50h40v-50h50v-40h-50v-49.985c102.582-10.079 183-96.828 183-202.015v-92.697l25.179 25.179z"/></svg>