<svg id="Layer_1" enable-background="new 0 0 512 512" height="512" viewBox="0 0 512 512" width="512" xmlns="http://www.w3.org/2000/svg"><path d="m277 357.009v63.991h50v40h-50v51h-40v-51h-50v-40h50v-63.82c-51.596-4.385-99.522-26.575-136.563-63.616-41.553-41.553-64.437-96.8-64.437-155.564h40c0 99.252 80.748 180 180 180s180-80.748 180-180h40c0 58.764-22.884 114.011-64.437 155.563-36.562 36.563-83.729 58.663-134.563 63.446zm-161-217.009c0-77.196 62.804-140 140-140s140 62.804 140 140-62.804 140-140 140-140-62.804-140-140zm40 0c0 55.14 44.859 100 100 100s100-44.86 100-100-44.859-100-100-100-100 44.86-100 100z"/></svg>