<svg id="Layer_1" enable-background="new 0 0 512 512" height="512" viewBox="0 0 512 512" width="512" xmlns="http://www.w3.org/2000/svg"><path d="m391 442c0 16.542-13.458 30-30 30s-30-13.458-30-30c0-21.658 16.667-45.142 34.311-70.004 21.416-30.177 45.689-64.379 45.689-104.996 0-77.196-62.804-140-140-140-39.138 0-74.57 16.15-100 42.128v-79.128h50v-40h-50v-50h-40v50h-50v40h50v342h40v-165c0-55.14 44.86-100 100-100s100 44.86 100 100c0 27.866-18.608 54.086-38.309 81.846-20.497 28.881-41.691 58.745-41.691 93.154 0 38.598 31.402 70 70 70s70-31.402 70-70z"/></svg>