<svg id="Layer_1" enable-background="new 0 0 511.598 511.598" height="512" viewBox="0 0 511.598 511.598" width="512" xmlns="http://www.w3.org/2000/svg"><path d="m359.295 119.478c-44.037-58.678-87.396-103.028-89.22-104.887l-14.316-14.591-14.275 14.63c-1.823 1.869-45.167 46.45-89.193 105.239-60.709 81.066-91.491 147.255-91.491 196.729 0 107.523 87.477 195 195 195s195-87.477 195-195c-.001-49.896-30.787-116.217-91.505-197.12zm-258.496 197.12c0-39.995 28.787-99.612 83.248-172.404 18.308-24.47 36.739-46.638 51.825-63.985v176.115l-37.883-37.751-28.234 28.333 66.117 65.888v58.998l-64.126-63.963-28.248 28.32 92.374 92.139v42.032c-76.09-9.808-135.073-75.005-135.073-153.722zm175.073 153.702v-42.011l92.374-92.139-28.248-28.32-64.126 63.963v-58.998l66.117-65.888-28.234-28.333-37.883 37.751v-176.125c15.061 17.254 33.439 39.292 51.695 63.641 54.45 72.624 83.231 132.361 83.231 172.757.001 78.666-58.906 143.828-134.926 153.702z"/></svg>