<svg id="Layer_1" enable-background="new 0 0 512 512" height="512" viewBox="0 0 512 512" width="512" xmlns="http://www.w3.org/2000/svg"><path d="m437.02 74.98c-48.353-48.351-112.64-74.98-181.02-74.98s-132.667 26.629-181.02 74.98c-48.351 48.353-74.98 112.64-74.98 181.02s26.629 132.667 74.98 181.02c48.353 48.351 112.64 74.98 181.02 74.98s132.667-26.629 181.02-74.98c48.351-48.353 74.98-112.64 74.98-181.02s-26.629-132.667-74.98-181.02zm34.045 161.02h-195.065v-195.066c103.172 9.519 185.547 91.893 195.065 195.066zm-235.065-195.066v195.066h-195.065c9.518-103.173 91.893-185.547 195.065-195.066zm-195.065 235.066h195.065v195.066c-103.172-9.519-185.547-91.893-195.065-195.066zm235.065 195.066v-195.066h195.065c-9.518 103.173-91.893 185.547-195.065 195.066z"/></svg>