<svg id="Layer_1" enable-background="new 0 0 512 512" height="512" viewBox="0 0 512 512" width="512" xmlns="http://www.w3.org/2000/svg"><path d="m403.487 184.003c0-86.107 94.102-149.702 95.053-150.334l-11.053-16.669-11.027-16.685c-4.322 2.856-99.692 66.981-111.726 163.688h-87.247v-164.003h-40v164.003h-90.247c-12.033-96.707-107.404-160.832-111.725-163.688l-22.055 33.37c.95.628 95.027 63.808 95.027 150.318 0 85.924-93.879 147.568-94.801 148.164l21.602 33.666c4.33-2.779 99.897-65.192 111.951-161.83h90.248v170.924c-28.881 8.628-50 35.424-50 67.073 0 38.598 31.402 70 70 70s70-31.402 70-70c0-31.649-21.119-58.445-50-67.073v-170.924h87.248c12.054 96.638 107.621 159.052 111.951 161.83l21.602-33.666c-.948-.608-94.801-61.828-94.801-148.164zm-116 257.997c0 16.542-13.458 30-30 30s-30-13.458-30-30 13.458-30 30-30 30 13.458 30 30z"/></svg>